<mxfile host="app.diagrams.net" modified="2023-01-19T09:01:38.862Z" agent="5.0 (Windows NT 10.0; Win64; x64) AppleWebKit/537.36 (KHTML, like Gecko) Chrome/109.0.0.0 Safari/537.36" etag="qGhN1QTlZvIHU_knVnvZ" version="20.8.6" type="github">
  <diagram id="C5RBs43oDa-KdzZeNtuy" name="Page-1">
    <mxGraphModel dx="478" dy="265" grid="1" gridSize="10" guides="1" tooltips="1" connect="1" arrows="1" fold="1" page="1" pageScale="1" pageWidth="827" pageHeight="1169" math="0" shadow="0">
      <root>
        <mxCell id="WIyWlLk6GJQsqaUBKTNV-0" />
        <mxCell id="WIyWlLk6GJQsqaUBKTNV-1" parent="WIyWlLk6GJQsqaUBKTNV-0" />
        <mxCell id="dOrKn7ImDXAWe1hEs0yb-1" value="&lt;&lt;Java Enumeration&gt;&gt; Weekday" style="swimlane;fontStyle=1;align=center;verticalAlign=top;childLayout=stackLayout;horizontal=1;startSize=26;horizontalStack=0;resizeParent=1;resizeParentMax=0;resizeLast=0;collapsible=1;marginBottom=0;" vertex="1" parent="WIyWlLk6GJQsqaUBKTNV-1">
          <mxGeometry x="190" y="120" width="350" height="164" as="geometry" />
        </mxCell>
        <mxCell id="dOrKn7ImDXAWe1hEs0yb-2" value="&lt;u&gt; +MONDAY:Weekday &lt;/u&gt;;&#xa;&lt;u&gt; +TUESDAY:Weekday &lt;/u&gt;;&#xa;&lt;u&gt; +WEDNESDAY:Weekday &lt;/u&gt;;&#xa;&lt;u&gt; +THURSDAY:Weekday &lt;/u&gt;;&#xa;&lt;u&gt; +FRIDAY:Weekday &lt;/u&gt;;&#xa;&lt;u&gt; +SATURDAY:Weekday &lt;/u&gt;;&#xa;&lt;u&gt; +SUNDAY:Weekday &lt;/u&gt;;" style="text;strokeColor=none;fillColor=none;align=left;verticalAlign=top;spacingLeft=4;spacingRight=4;overflow=hidden;rotatable=0;points=[[0,0.5],[1,0.5]];portConstraint=eastwest;" vertex="1" parent="dOrKn7ImDXAWe1hEs0yb-1">
          <mxGeometry y="26" width="350" height="104" as="geometry" />
        </mxCell>
        <mxCell id="dOrKn7ImDXAWe1hEs0yb-3" value="" style="line;strokeWidth=1;fillColor=none;align=left;verticalAlign=middle;spacingTop=-1;spacingLeft=3;spacingRight=3;rotatable=0;labelPosition=right;points=[];portConstraint=eastwest;strokeColor=inherit;" vertex="1" parent="dOrKn7ImDXAWe1hEs0yb-1">
          <mxGeometry y="130" width="350" height="8" as="geometry" />
        </mxCell>
        <mxCell id="dOrKn7ImDXAWe1hEs0yb-4" value="+ Weekday()" style="text;strokeColor=none;fillColor=none;align=left;verticalAlign=top;spacingLeft=4;spacingRight=4;overflow=hidden;rotatable=0;points=[[0,0.5],[1,0.5]];portConstraint=eastwest;" vertex="1" parent="dOrKn7ImDXAWe1hEs0yb-1">
          <mxGeometry y="138" width="350" height="26" as="geometry" />
        </mxCell>
      </root>
    </mxGraphModel>
  </diagram>
</mxfile>
